<svg xmlns="http://www.w3.org/2000/svg" width="63.48" height="65.355" viewBox="0 0 63.48 65.355"><defs><style>.a{fill:#ffe401;}.b,.c{fill:none;}.c{stroke:#000;stroke-width:3px;}.d,.e{stroke:none;}.e{fill:#000;}</style></defs><path class="a" d="M29.052,0A29.052,29.052,0,0,1,58.1,29.052c0,11.857,1.821,16.83-8.568,21.435-3.392,1.5-16.3,7.617-20.484,7.617-4.509,0-14.547-2.73-18.531-4.649C.955,48.852,0,40.589,0,29.052c0-5.808,3.034-16.1,6.078-20.8C11.145.416,18.815,0,29.052,0Z" transform="translate(5.253 7.251)"/><g class="b" transform="translate(0 0.494)"><path class="d" d="M30.5-.112a30.5,30.5,0,0,1,30.5,30.5c0,8.323-4.251,14.4-10.268,19.568-5.819,5-13.506,8.975-22.031,8.975C11.863,58.935,0,47.24,0,30.393,0,20.84.93,12.67,8.556,5.044S23.21-.112,30.5-.112Z"/><path class="e" d="M 21.97153091430664 2.506034851074219 C 19.73605346679688 2.506034851074219 18.01064300537109 2.769569396972656 16.37702941894531 3.360515594482422 C 14.37882995605469 4.083347320556641 12.51444244384766 5.327770233154297 10.67734146118164 7.164871215820312 C 7.480964660644531 10.36124801635742 5.456050872802734 13.74465942382812 4.304821014404297 17.81267929077148 C 3.158073425292969 21.86491394042969 2.999996185302734 26.25365829467773 2.999996185302734 30.39270401000977 C 2.999996185302734 34.14832305908203 3.641029357910156 37.66777038574219 4.905307769775391 40.853271484375 C 6.120006561279297 43.91389083862305 7.884609222412109 46.60492706298828 10.15007400512695 48.85163497924805 C 12.41428756713867 51.09709167480469 15.12555313110352 52.84616851806641 18.20856475830078 54.05027008056641 C 21.4112434387207 55.30110168457031 24.94466400146484 55.93533706665039 28.71067428588867 55.93533706665039 C 32.29914093017578 55.93533706665039 35.94327545166016 55.1400032043457 39.54183959960938 53.57141494750977 C 42.7611083984375 52.16817092895508 45.87168502807617 50.18740463256836 48.78764343261719 47.68373870849609 C 51.82070922851562 45.08061218261719 54.02319717407227 42.52901458740234 55.5209846496582 39.88314819335938 C 57.19549560546875 36.92511367797852 58.00948715209961 33.82075881958008 58.00948715209961 30.39270401000977 C 58.00948715209961 26.67827033996582 57.28267669677734 23.0765266418457 55.84925079345703 19.68753814697266 C 54.46409606933594 16.41264724731445 52.48048400878906 13.47087097167969 49.95352935791016 10.94391250610352 C 47.42657470703125 8.416957855224609 44.48479461669922 6.433349609375 41.20990753173828 5.048191070556641 C 37.82091903686523 3.614768981933594 34.21917724609375 2.887958526611328 30.50474166870117 2.887958526611328 C 28.96608734130859 2.887958526611328 27.46555328369141 2.787059783935547 26.01440811157227 2.689479827880859 C 24.61138534545898 2.595146179199219 23.28617477416992 2.506034851074219 21.97153091430664 2.506034851074219 M 21.97152709960938 -0.4939651489257812 C 24.80979156494141 -0.4939651489257812 27.63647842407227 -0.1120414733886719 30.50474166870117 -0.1120414733886719 C 47.35204315185547 -0.1120414733886719 61.00948715209961 13.54540252685547 61.00948715209961 30.39270401000977 C 61.00948715209961 38.71527099609375 56.75807571411133 44.79650115966797 50.74147415161133 49.96025848388672 C 44.92208862304688 54.95683670043945 37.23540878295898 58.93533706665039 28.71067428588867 58.93533706665039 C 11.86336517333984 58.93533706665039 -3.814697265625e-06 47.24000549316406 -3.814697265625e-06 30.39270401000977 C -3.814697265625e-06 20.84028244018555 0.9298324584960938 12.66972732543945 8.556018829345703 5.043548583984375 C 13.18367385864258 0.4158897399902344 17.59120178222656 -0.4939651489257812 21.97152709960938 -0.4939651489257812 Z"/></g><path class="c" d="M1918.258,2716.931c-1.176,2.012.193,4.474-.732,10.59a29.79,29.79,0,0,0,1.278,12.445s16.168-6.9,17.146-10.451c.071-1.56-12.441-10.137-12.441-10.137S1919.435,2714.918,1918.258,2716.931Z" transform="translate(-1894.645 -2698.534)"/></svg>